<svg width="1040" height="154" viewBox="0 0 1040 154" fill="none" xmlns="http://www.w3.org/2000/svg">
<path opacity="0.3" d="M-74.65 27.3498C-78.1796 27.3498 -81.2679 26.0814 -83.9151 23.5445C-86.4519 20.8974 -87.7203 17.809 -87.7203 14.2795C-87.7203 10.75 -86.4519 7.66161 -83.9151 5.01446C-81.2679 2.36731 -78.1796 1.04374 -74.65 1.04374C-71.0102 1.04374 -67.9219 2.36731 -65.385 5.01446C-62.7379 7.66161 -61.4143 10.75 -61.4143 14.2795C-61.4143 17.809 -62.7379 20.8974 -65.385 23.5445C-67.9219 26.0814 -71.0102 27.3498 -74.65 27.3498ZM-85.2386 120V37.2766H-63.896V120H-85.2386ZM1.63257 34.9603C10.677 34.9603 18.1221 37.9935 23.9679 44.0599C29.924 50.1263 32.902 58.5089 32.902 69.2078V120H11.5594V71.855C11.5594 66.3401 10.0704 62.1488 7.09231 59.281C4.11427 56.303 0.143551 54.814 -4.81985 54.814C-10.3347 54.814 -14.7467 56.5236 -18.0556 59.9428C-21.3645 63.362 -23.019 68.4909 -23.019 75.3294V120H-44.3616V37.2766H-23.019V46.5416C-17.835 38.8208 -9.61781 34.9603 1.63257 34.9603ZM95.6309 22.3864C83.9393 21.504 78.0936 26.1917 78.0936 36.4494V37.2766H95.6309V57.792H78.0936V120H56.7509V57.792H44.8387V37.2766H56.7509V36.4494C56.7509 24.7578 60.0047 15.8788 66.5123 9.81242C73.0199 3.74604 82.7261 1.09889 95.6309 1.87097V22.3864ZM172.823 109.742C164.331 118.125 153.963 122.316 141.719 122.316C129.476 122.316 119.108 118.125 110.615 109.742C102.233 101.249 98.0415 90.8814 98.0415 78.6383C98.0415 66.3952 102.233 56.0824 110.615 47.6997C119.108 39.2068 129.476 34.9603 141.719 34.9603C153.963 34.9603 164.331 39.2068 172.823 47.6997C181.316 56.0824 185.563 66.3952 185.563 78.6383C185.563 90.8814 181.316 101.249 172.823 109.742ZM125.671 95.0175C129.973 99.3191 135.322 101.47 141.719 101.47C148.117 101.47 153.466 99.3191 157.768 95.0175C162.069 90.7159 164.22 85.2562 164.22 78.6383C164.22 72.0204 162.069 66.5607 157.768 62.2591C153.466 57.9574 148.117 55.8066 141.719 55.8066C135.322 55.8066 129.973 57.9574 125.671 62.2591C121.48 66.5607 119.384 72.0204 119.384 78.6383C119.384 85.2562 121.48 90.7159 125.671 95.0175ZM256.498 18.7465C268.19 18.7465 278.558 21.6143 287.602 27.3498C296.647 32.975 303.375 40.034 307.787 48.527C312.199 57.0199 314.405 65.954 314.405 75.3294C314.405 86.8003 311.923 95.6793 306.959 101.966C301.996 108.143 295.709 111.231 288.099 111.231C276.958 111.231 269.679 106.875 266.26 98.161C262.068 103.235 256.609 105.772 249.88 105.772C242.821 105.772 236.975 103.235 232.343 98.161C227.821 92.977 225.56 86.4694 225.56 78.6383C225.56 70.8071 227.821 64.3547 232.343 59.281C236.975 54.097 242.821 51.505 249.88 51.505C255.836 51.505 260.855 53.5455 264.936 57.6266V53.3249H282.639V91.5431C282.639 99.5949 285.837 103.621 292.235 103.621C296.978 103.621 300.783 101.249 303.651 96.5066C306.629 91.7637 308.118 84.7047 308.118 75.3294C308.118 60.9906 303.154 48.913 293.227 39.0965C283.301 29.28 271.058 24.3717 256.498 24.3717C241.277 24.3717 228.427 29.6109 217.949 40.0892C207.581 50.4572 202.397 63.3069 202.397 78.6383C202.397 94.3006 207.802 107.261 218.611 117.518C229.42 127.776 243.042 132.905 259.476 132.905C269.844 132.905 278.778 131.526 286.279 128.769V134.725C278.889 137.262 269.955 138.53 259.476 138.53C241.387 138.53 226.332 132.85 214.309 121.489C202.287 110.239 196.276 95.9551 196.276 78.6383C196.276 61.9833 202.011 47.8652 213.482 36.2839C225.063 24.5923 239.402 18.7465 256.498 18.7465ZM254.347 89.8887C257.436 89.8887 259.917 88.8408 261.793 86.7452C263.778 84.6495 264.771 81.9472 264.771 78.6383C264.771 75.2191 263.778 72.5168 261.793 70.5314C259.917 68.4357 257.436 67.3879 254.347 67.3879C251.149 67.3879 248.557 68.4357 246.571 70.5314C244.586 72.5168 243.593 75.2191 243.593 78.6383C243.593 81.9472 244.586 84.6495 246.571 86.7452C248.557 88.8408 251.149 89.8887 254.347 89.8887ZM368.886 122.316C356.422 122.316 345.999 118.125 337.616 109.742C329.344 101.36 325.208 90.9917 325.208 78.6383C325.208 66.2849 329.344 55.9169 337.616 47.5343C345.999 39.1517 356.422 34.9603 368.886 34.9603C376.937 34.9603 384.272 36.8906 390.89 40.751C397.508 44.6114 402.527 49.7954 405.946 56.303L387.581 67.057C385.927 63.6378 383.39 60.9355 379.971 58.9501C376.662 56.9648 372.912 55.9721 368.72 55.9721C362.323 55.9721 357.029 58.1229 352.837 62.4245C348.646 66.6158 346.55 72.0204 346.55 78.6383C346.55 85.1459 348.646 90.5505 352.837 94.8521C357.029 99.0434 362.323 101.139 368.72 101.139C373.022 101.139 376.827 100.202 380.136 98.3265C383.555 96.3411 386.092 93.6388 387.747 90.2196L406.277 100.808C402.637 107.316 397.508 112.555 390.89 116.526C384.272 120.386 376.937 122.316 368.886 122.316ZM439.553 51.505C441.539 46.2107 444.793 42.24 449.315 39.5928C453.947 36.9457 459.076 35.6221 464.701 35.6221V59.4465C458.194 58.6744 452.348 59.998 447.164 63.4172C442.09 66.8364 439.553 72.5168 439.553 80.4582V120H418.211V37.2766H439.553V51.505ZM536.984 37.2766H558.326V120H536.984V110.239C530.586 118.29 521.597 122.316 510.016 122.316C498.986 122.316 489.5 118.125 481.559 109.742C473.728 101.249 469.812 90.8814 469.812 78.6383C469.812 66.3952 473.728 56.0824 481.559 47.6997C489.5 39.2068 498.986 34.9603 510.016 34.9603C521.597 34.9603 530.586 38.9862 536.984 47.038V37.2766ZM497.607 95.5139C501.909 99.8155 507.369 101.966 513.986 101.966C520.604 101.966 526.064 99.8155 530.366 95.5139C534.778 91.102 536.984 85.4768 536.984 78.6383C536.984 71.7998 534.778 66.2298 530.366 61.9282C526.064 57.5163 520.604 55.3103 513.986 55.3103C507.369 55.3103 501.909 57.5163 497.607 61.9282C493.306 66.2298 491.155 71.7998 491.155 78.6383C491.155 85.4768 493.306 91.102 497.607 95.5139ZM622.185 22.3864C610.493 21.504 604.647 26.1917 604.647 36.4494V37.2766H622.185V57.792H604.647V120H583.305V57.792H571.393V37.2766H583.305V36.4494C583.305 24.7578 586.559 15.8788 593.066 9.81242C599.574 3.74604 609.28 1.09889 622.185 1.87097V22.3864ZM681.87 57.792H663.174V92.2049C663.174 95.0727 663.891 97.1683 665.325 98.4919C666.759 99.8155 668.855 100.588 671.612 100.808C674.369 100.918 677.789 100.863 681.87 100.643V120C667.2 121.654 656.832 120.276 650.766 115.864C644.81 111.452 641.832 103.566 641.832 92.2049V57.792H627.438V37.2766H641.832V20.5665L663.174 14.114V37.2766H681.87V57.792ZM752.63 37.2766H775.462L745.351 120C741.049 131.912 735.314 140.515 728.144 145.81C721.085 151.214 712.261 153.641 701.673 153.089V133.236C707.408 133.346 711.931 132.133 715.24 129.596C718.659 127.059 721.361 122.978 723.346 117.353L689.43 37.2766H712.758L734.266 92.8667L752.63 37.2766ZM877.111 34.9603C886.597 34.9603 894.152 38.0487 899.777 44.2254C905.513 50.402 908.381 58.6744 908.381 69.0424V120H887.038V70.5314C887.038 65.568 885.825 61.7076 883.398 58.9501C880.972 56.1927 877.552 54.814 873.14 54.814C868.287 54.814 864.482 56.4133 861.725 59.6119C859.077 62.8106 857.754 67.4431 857.754 73.5094V120H836.411V70.5314C836.411 65.568 835.198 61.7076 832.771 58.9501C830.345 56.1927 826.926 54.814 822.514 54.814C817.771 54.814 813.966 56.4133 811.098 59.6119C808.34 62.8106 806.962 67.4431 806.962 73.5094V120H785.619V37.2766H806.962V46.0453C811.925 38.6553 819.591 34.9603 829.959 34.9603C840.106 34.9603 847.606 38.9311 852.46 46.8725C857.974 38.9311 866.192 34.9603 877.111 34.9603ZM944.541 87.407C947.409 97.775 955.185 102.959 967.869 102.959C976.031 102.959 982.208 100.202 986.399 94.6866L1003.61 104.613C995.444 116.415 983.421 122.316 967.538 122.316C953.861 122.316 942.887 118.18 934.614 109.908C926.342 101.635 922.206 91.2123 922.206 78.6383C922.206 66.1746 926.287 55.8066 934.449 47.5343C942.611 39.1517 953.089 34.9603 965.884 34.9603C978.016 34.9603 987.998 39.1517 995.83 47.5343C1003.77 55.9169 1007.74 66.2849 1007.74 78.6383C1007.74 81.3957 1007.47 84.3186 1006.91 87.407H944.541ZM944.21 70.8623H986.399C985.186 65.2371 982.649 61.0458 978.789 58.2883C975.038 55.5309 970.737 54.1522 965.884 54.1522C960.148 54.1522 955.405 55.6412 951.655 58.6192C947.905 61.487 945.423 65.568 944.21 70.8623ZM1067.54 57.792H1048.84V92.2049C1048.84 95.0727 1049.56 97.1683 1050.99 98.4919C1052.42 99.8155 1054.52 100.588 1057.28 100.808C1060.03 100.918 1063.45 100.863 1067.54 100.643V120C1052.87 121.654 1042.5 120.276 1036.43 115.864C1030.48 111.452 1027.5 103.566 1027.5 92.2049V57.792H1013.1V37.2766H1027.5V20.5665L1048.84 14.114V37.2766H1067.54V57.792ZM1142.87 37.2766H1164.21V120H1142.87V110.239C1136.47 118.29 1127.48 122.316 1115.9 122.316C1104.87 122.316 1095.38 118.125 1087.44 109.742C1079.61 101.249 1075.7 90.8814 1075.7 78.6383C1075.7 66.3952 1079.61 56.0824 1087.44 47.6997C1095.38 39.2068 1104.87 34.9603 1115.9 34.9603C1127.48 34.9603 1136.47 38.9862 1142.87 47.038V37.2766ZM1103.49 95.5139C1107.79 99.8155 1113.25 101.966 1119.87 101.966C1126.49 101.966 1131.95 99.8155 1136.25 95.5139C1140.66 91.102 1142.87 85.4768 1142.87 78.6383C1142.87 71.7998 1140.66 66.2298 1136.25 61.9282C1131.95 57.5163 1126.49 55.3103 1119.87 55.3103C1113.25 55.3103 1107.79 57.5163 1103.49 61.9282C1099.19 66.2298 1097.04 71.7998 1097.04 78.6383C1097.04 85.4768 1099.19 91.102 1103.49 95.5139ZM1238 37.2766H1261.49L1230.05 120H1205.73L1174.3 37.2766H1197.79L1217.81 95.183L1238 37.2766ZM1286.58 87.407C1289.45 97.775 1297.23 102.959 1309.91 102.959C1318.07 102.959 1324.25 100.202 1328.44 94.6866L1345.65 104.613C1337.49 116.415 1325.46 122.316 1309.58 122.316C1295.9 122.316 1284.93 118.18 1276.66 109.908C1268.38 101.635 1264.25 91.2123 1264.25 78.6383C1264.25 66.1746 1268.33 55.8066 1276.49 47.5343C1284.65 39.1517 1295.13 34.9603 1307.93 34.9603C1320.06 34.9603 1330.04 39.1517 1337.87 47.5343C1345.81 55.9169 1349.78 66.2849 1349.78 78.6383C1349.78 81.3957 1349.51 84.3186 1348.96 87.407H1286.58ZM1286.25 70.8623H1328.44C1327.23 65.2371 1324.69 61.0458 1320.83 58.2883C1317.08 55.5309 1312.78 54.1522 1307.93 54.1522C1302.19 54.1522 1297.45 55.6412 1293.7 58.6192C1289.95 61.487 1287.47 65.568 1286.25 70.8623ZM1386.03 51.505C1388.01 46.2107 1391.26 42.24 1395.79 39.5928C1400.42 36.9457 1405.55 35.6221 1411.17 35.6221V59.4465C1404.67 58.6744 1398.82 59.998 1393.64 63.4172C1388.56 66.8364 1386.03 72.5168 1386.03 80.4582V120H1364.68V37.2766H1386.03V51.505ZM1440.76 60.77C1440.76 62.976 1442.19 64.7959 1445.06 66.2298C1448.04 67.5534 1451.62 68.7666 1455.81 69.8696C1460.01 70.8623 1464.2 72.1859 1468.39 73.8403C1472.58 75.3845 1476.11 78.0317 1478.98 81.7818C1481.95 85.5319 1483.44 90.2196 1483.44 95.8448C1483.44 104.338 1480.25 110.9 1473.85 115.533C1467.56 120.055 1459.67 122.316 1450.19 122.316C1433.2 122.316 1421.62 115.754 1415.45 102.628L1433.98 92.2049C1436.4 99.3743 1441.81 102.959 1450.19 102.959C1457.8 102.959 1461.61 100.588 1461.61 95.8448C1461.61 93.6388 1460.12 91.874 1457.14 90.5505C1454.27 89.1166 1450.74 87.8482 1446.55 86.7452C1442.36 85.6422 1438.17 84.2635 1433.98 82.609C1429.78 80.9546 1426.2 78.3626 1423.22 74.833C1420.35 71.1932 1418.92 66.671 1418.92 61.2664C1418.92 53.1043 1421.9 46.7071 1427.85 42.0746C1433.92 37.3317 1441.42 34.9603 1450.35 34.9603C1457.08 34.9603 1463.2 36.5045 1468.72 39.5928C1474.23 42.5709 1478.59 46.8725 1481.79 52.4977L1463.59 62.4245C1460.94 56.7993 1456.53 53.9867 1450.35 53.9867C1447.6 53.9867 1445.28 54.5934 1443.41 55.8066C1441.64 57.0199 1440.76 58.6744 1440.76 60.77ZM1514.07 87.407C1516.94 97.775 1524.72 102.959 1537.4 102.959C1545.56 102.959 1551.74 100.202 1555.93 94.6866L1573.14 104.613C1564.97 116.415 1552.95 122.316 1537.07 122.316C1523.39 122.316 1512.42 118.18 1504.15 109.908C1495.87 101.635 1491.74 91.2123 1491.74 78.6383C1491.74 66.1746 1495.82 55.8066 1503.98 47.5343C1512.14 39.1517 1522.62 34.9603 1535.41 34.9603C1547.55 34.9603 1557.53 39.1517 1565.36 47.5343C1573.3 55.9169 1577.27 66.2849 1577.27 78.6383C1577.27 81.3957 1577 84.3186 1576.45 87.407H1514.07ZM1513.74 70.8623H1555.93C1554.72 65.2371 1552.18 61.0458 1548.32 58.2883C1544.57 55.5309 1540.27 54.1522 1535.41 54.1522C1529.68 54.1522 1524.94 55.6412 1521.19 58.6192C1517.44 61.487 1514.95 65.568 1513.74 70.8623ZM1607.88 118.015C1605.13 120.772 1601.82 122.151 1597.96 122.151C1594.1 122.151 1590.79 120.772 1588.03 118.015C1585.27 115.257 1583.89 111.948 1583.89 108.088C1583.89 104.227 1585.27 100.918 1588.03 98.161C1590.79 95.4036 1594.1 94.0249 1597.96 94.0249C1601.82 94.0249 1605.13 95.4036 1607.88 98.161C1610.64 100.918 1612.02 104.227 1612.02 108.088C1612.02 111.948 1610.64 115.257 1607.88 118.015ZM1662.57 122.316C1650.11 122.316 1639.68 118.125 1631.3 109.742C1623.03 101.36 1618.89 90.9917 1618.89 78.6383C1618.89 66.2849 1623.03 55.9169 1631.3 47.5343C1639.68 39.1517 1650.11 34.9603 1662.57 34.9603C1670.62 34.9603 1677.96 36.8906 1684.57 40.751C1691.19 44.6114 1696.21 49.7954 1699.63 56.303L1681.27 67.057C1679.61 63.6378 1677.07 60.9355 1673.65 58.9501C1670.35 56.9648 1666.6 55.9721 1662.4 55.9721C1656.01 55.9721 1650.71 58.1229 1646.52 62.4245C1642.33 66.6158 1640.23 72.0204 1640.23 78.6383C1640.23 85.1459 1642.33 90.5505 1646.52 94.8521C1650.71 99.0434 1656.01 101.139 1662.4 101.139C1666.71 101.139 1670.51 100.202 1673.82 98.3265C1677.24 96.3411 1679.78 93.6388 1681.43 90.2196L1699.96 100.808C1696.32 107.316 1691.19 112.555 1684.57 116.526C1677.96 120.386 1670.62 122.316 1662.57 122.316ZM1780.44 109.742C1771.94 118.125 1761.58 122.316 1749.33 122.316C1737.09 122.316 1726.72 118.125 1718.23 109.742C1709.85 101.249 1705.65 90.8814 1705.65 78.6383C1705.65 66.3952 1709.85 56.0824 1718.23 47.6997C1726.72 39.2068 1737.09 34.9603 1749.33 34.9603C1761.58 34.9603 1771.94 39.2068 1780.44 47.6997C1788.93 56.0824 1793.18 66.3952 1793.18 78.6383C1793.18 90.8814 1788.93 101.249 1780.44 109.742ZM1733.28 95.0175C1737.59 99.3191 1742.94 101.47 1749.33 101.47C1755.73 101.47 1761.08 99.3191 1765.38 95.0175C1769.68 90.7159 1771.83 85.2562 1771.83 78.6383C1771.83 72.0204 1769.68 66.5607 1765.38 62.2591C1761.08 57.9574 1755.73 55.8066 1749.33 55.8066C1742.94 55.8066 1737.59 57.9574 1733.28 62.2591C1729.09 66.5607 1727 72.0204 1727 78.6383C1727 85.2562 1729.09 90.7159 1733.28 95.0175ZM1899.68 34.9603C1909.17 34.9603 1916.72 38.0487 1922.35 44.2254C1928.08 50.402 1930.95 58.6744 1930.95 69.0424V120H1909.61V70.5314C1909.61 65.568 1908.4 61.7076 1905.97 58.9501C1903.54 56.1927 1900.12 54.814 1895.71 54.814C1890.86 54.814 1887.05 56.4133 1884.3 59.6119C1881.65 62.8106 1880.33 67.4431 1880.33 73.5094V120H1858.98V70.5314C1858.98 65.568 1857.77 61.7076 1855.34 58.9501C1852.92 56.1927 1849.5 54.814 1845.08 54.814C1840.34 54.814 1836.54 56.4133 1833.67 59.6119C1830.91 62.8106 1829.53 67.4431 1829.53 73.5094V120H1808.19V37.2766H1829.53V46.0453C1834.5 38.6553 1842.16 34.9603 1852.53 34.9603C1862.68 34.9603 1870.18 38.9311 1875.03 46.8725C1880.55 38.9311 1888.76 34.9603 1899.68 34.9603Z" fill="white"/>
</svg>
